<?xml version="1.0" encoding="UTF-8" standalone="no"?>
<!-- Created with Inkscape (http://www.inkscape.org/) -->

<svg
   xmlns:dc="http://purl.org/dc/elements/1.1/"
   xmlns:cc="http://creativecommons.org/ns#"
   xmlns:rdf="http://www.w3.org/1999/02/22-rdf-syntax-ns#"
   xmlns:svg="http://www.w3.org/2000/svg"
   xmlns="http://www.w3.org/2000/svg"
   xmlns:sodipodi="http://sodipodi.sourceforge.net/DTD/sodipodi-0.dtd"
   xmlns:inkscape="http://www.inkscape.org/namespaces/inkscape"
   width="4000"
   height="4000"
   viewBox="0 0 1058.3333 1058.3334"
   version="1.1"
   id="svg8"
   inkscape:version="0.92.4 5da689c313, 2019-01-14"
   sodipodi:docname="wizsid.svg"
   inkscape:export-filename="/home/ramesh/Documents/whizsid120.png"
   inkscape:export-xdpi="3.8396423"
   inkscape:export-ydpi="3.8396423">
  <defs
     id="defs2" />
  <sodipodi:namedview
     id="base"
     pagecolor="#ffffff"
     bordercolor="#666666"
     borderopacity="1.0"
     inkscape:pageopacity="0.0"
     inkscape:pageshadow="2"
     inkscape:zoom="0.087500001"
     inkscape:cx="959.54201"
     inkscape:cy="1848.224"
     inkscape:document-units="px"
     inkscape:current-layer="g49"
     showgrid="false"
     units="px"
     showguides="true"
     inkscape:guide-bbox="true"
     inkscape:window-width="1366"
     inkscape:window-height="718"
     inkscape:window-x="0"
     inkscape:window-y="22"
     inkscape:window-maximized="1">
    <sodipodi:guide
       position="132.29167,940.40482"
       orientation="1,0"
       id="guide10"
       inkscape:locked="false"
       inkscape:label=""
       inkscape:color="rgb(0,0,255)" />
    <sodipodi:guide
       position="926.04168,910.16672"
       orientation="1,0"
       id="guide12"
       inkscape:locked="false"
       inkscape:label=""
       inkscape:color="rgb(0,0,255)" />
    <sodipodi:guide
       position="601.73808,926.04168"
       orientation="0,1"
       id="guide14"
       inkscape:locked="false"
       inkscape:label=""
       inkscape:color="rgb(0,0,255)" />
    <sodipodi:guide
       position="653.14284,132.29167"
       orientation="0,1"
       id="guide16"
       inkscape:locked="false"
       inkscape:label=""
       inkscape:color="rgb(0,0,255)" />
    <sodipodi:guide
       position="529.16667,641.04766"
       orientation="1,0"
       id="guide18"
       inkscape:locked="false"
       inkscape:label=""
       inkscape:color="rgb(0,0,255)" />
    <sodipodi:guide
       position="330.72917,480.78574"
       orientation="1,0"
       id="guide20"
       inkscape:locked="false"
       inkscape:label=""
       inkscape:color="rgb(0,0,255)" />
    <sodipodi:guide
       position="727.60418,631.97623"
       orientation="1,0"
       id="guide22"
       inkscape:locked="false"
       inkscape:label=""
       inkscape:color="rgb(0,0,255)" />
    <sodipodi:guide
       position="399.14284,529.16667"
       orientation="0,1"
       id="guide24"
       inkscape:locked="false"
       inkscape:label=""
       inkscape:color="rgb(0,0,255)" />
    <sodipodi:guide
       position="441.47618,330.72917"
       orientation="0,1"
       id="guide26"
       inkscape:locked="false"
       inkscape:label=""
       inkscape:color="rgb(0,0,255)" />
    <sodipodi:guide
       position="396.87501,467.18716"
       orientation="1,0"
       id="guide837"
       inkscape:locked="false"
       inkscape:label=""
       inkscape:color="rgb(0,0,255)" />
    <sodipodi:guide
       position="409.99144,396.87501"
       orientation="0,1"
       id="guide839"
       inkscape:locked="false"
       inkscape:label=""
       inkscape:color="rgb(0,0,255)" />
    <sodipodi:guide
       position="661.45834,396.87503"
       orientation="1,0"
       id="guide841"
       inkscape:locked="false"
       inkscape:label=""
       inkscape:color="rgb(0,0,255)" />
    <sodipodi:guide
       position="393.48757,379.17194"
       orientation="0,1"
       id="guide28"
       inkscape:locked="false" />
    <sodipodi:guide
       position="392.45188,379.17196"
       orientation="1,0"
       id="guide30"
       inkscape:locked="false" />
    <sodipodi:guide
       position="375.86446,311.63629"
       orientation="0,1"
       id="guide32"
       inkscape:locked="false" />
    <sodipodi:guide
       position="375.56379,312.50491"
       orientation="1,0"
       id="guide34"
       inkscape:locked="false" />
  </sodipodi:namedview>
  <metadata
     id="metadata5">
    <rdf:RDF>
      <cc:Work
         rdf:about="">
        <dc:format>image/svg+xml</dc:format>
        <dc:type
           rdf:resource="http://purl.org/dc/dcmitype/StillImage" />
        <dc:title />
      </cc:Work>
    </rdf:RDF>
  </metadata>
  <g
     inkscape:groupmode="layer"
     id="layer3"
     inkscape:label="Layer 1 copy 3" />
  <g
     inkscape:label="Layer 1"
     id="layer1"
     transform="translate(0,761.33335)"
     style="display:inline"
     inkscape:groupmode="layer">
    <g
       aria-label="s"
       transform="matrix(0.26892447,0,0,0.26458334,146.66242,-851.79854)"
       style="font-style:normal;font-variant:normal;font-weight:normal;font-stretch:normal;font-size:40px;line-height:1.25;font-family:'Droid Sans Mono';-inkscape-font-specification:'Droid Sans Mono';letter-spacing:0px;word-spacing:0px;display:inline;fill:#680002;fill-opacity:1;stroke:none"
       id="flowRoot864">
      <path
         d="m 851.17345,3164.0777 62.79864,-255.2528 c 217.79521,97.0486 356.21031,115.8804 555.94991,115.8804 310.3299,0 465.4948,-91.4062 465.4948,-274.2187 0,-64.3229 -27.6476,-120.1823 -82.9427,-167.5782 -55.2951,-47.3958 -182.8125,-107.2048 -382.5521,-179.4271 -262.9341,-98.1771 -428.8195,-187.8906 -497.65633,-269.1406 -67.70834,-82.3785 -101.56251,-179.4271 -101.56251,-291.1459 0,-153.4722 62.63021,-273.6545 187.89064,-360.5469 l 223.1272,121.2499 c -71.1709,50.3538 -116.4866,145.9142 -116.4866,227.4481 0,68.8368 28.2118,124.1319 84.6355,165.8854 57.5521,40.625 189.0191,97.6128 394.401,170.9635 238.1077,86.8924 396.0938,172.6563 473.9584,257.2917 78.9931,83.507 118.4896,186.198 118.4896,308.073 0,169.2709 -66.0156,302.4306 -198.0469,399.4792 -132.0313,95.9201 -318.7934,143.8802 -560.2865,143.8802 -279.8611,0 -483.89606,-34.9766 -627.21205,-112.8412 z"
         style="font-style:normal;font-variant:normal;font-weight:normal;font-stretch:normal;font-size:3466.66699219px;font-family:'Droid Sans Mono';-inkscape-font-specification:'Droid Sans Mono';display:inline;fill:#680002;fill-opacity:1"
         id="path25"
         inkscape:connector-curvature="0"
         sodipodi:nodetypes="ccsssccsccscccscsc" />
    </g>
  </g>
  <g
     transform="translate(0,761.33335)"
     id="g67"
     inkscape:groupmode="layer"
     inkscape:label="Layer 1 copy"
     style="display:inline">
    <g
       aria-label="s"
       transform="matrix(0.26892447,0,0,0.26458334,146.66242,-851.79854)"
       style="font-style:normal;font-variant:normal;font-weight:normal;font-stretch:normal;font-size:40px;line-height:1.25;font-family:'Droid Sans Mono';-inkscape-font-specification:'Droid Sans Mono';letter-spacing:0px;word-spacing:0px;display:inline;fill:#680002;fill-opacity:1;stroke:none"
       id="g65">
      <path
         d="m 1919.0591,2843.6594 c 10.9051,-27.8455 16.3577,-58.9031 16.3577,-93.1728 0,-64.3229 -27.6476,-120.1823 -82.9427,-167.5782 -55.2951,-47.3958 -182.8125,-107.2048 -382.5521,-179.4271 -262.9341,-98.1771 -428.8195,-187.8906 -497.65633,-269.1406 -67.70834,-82.3785 -101.56251,-179.4271 -101.56251,-291.1459 l 294.53124,-11.8489 c 0,68.8368 28.2118,124.1319 84.6355,165.8854 57.5521,40.625 189.0191,97.6128 394.401,170.9635 238.1077,86.8924 396.0938,172.6563 473.9584,257.2917 78.9931,83.507 118.4896,186.198 118.4896,308.073 0,169.2709 -66.0156,302.4306 -198.0469,399.4792 z"
         style="font-style:normal;font-variant:normal;font-weight:normal;font-stretch:normal;font-size:3466.66699219px;font-family:'Droid Sans Mono';-inkscape-font-specification:'Droid Sans Mono';display:inline;fill:#680002;fill-opacity:1"
         id="path63"
         inkscape:connector-curvature="0"
         sodipodi:nodetypes="ccssccccccccc" />
    </g>
  </g>
  <g
     inkscape:groupmode="layer"
     id="layer2"
     inkscape:label="Layer 2"
     style="display:inline">
    <g
       id="g49"
       transform="translate(-9.9999674e-6,761.33334)">
      <path
         inkscape:connector-curvature="0"
         id="path28"
         d="M 132.29167,-629.04168 330.72917,164.70834 529.16668,-629.04168 727.60419,164.70834 926.04169,-629.04168 727.60419,-33.729165 529.16668,-232.16667 330.72917,-33.729165 Z"
         style="display:inline;fill:#040404;fill-opacity:1;stroke:#000000;stroke-width:0.26458335px;stroke-linecap:butt;stroke-linejoin:miter;stroke-opacity:1" />
      <path
         inkscape:connector-curvature="0"
         id="path843"
         d="M 396.87501,-99.875 529.16668,-629.04168 661.45835,-99.875 529.16668,-232.16667 Z"
         style="fill:#3778a1;fill-opacity:1;stroke:#000000;stroke-width:0.26458335px;stroke-linecap:butt;stroke-linejoin:miter;stroke-opacity:1" />
    </g>
  </g>
  <g
     transform="translate(0,761.33335)"
     id="g87"
     inkscape:groupmode="layer"
     inkscape:label="Layer 1 copy 2"
     style="display:inline">
    <g
       id="g85"
       style="font-style:normal;font-variant:normal;font-weight:normal;font-stretch:normal;font-size:40px;line-height:1.25;font-family:'Droid Sans Mono';-inkscape-font-specification:'Droid Sans Mono';letter-spacing:0px;word-spacing:0px;display:inline;fill:#680002;fill-opacity:1;stroke:none"
       transform="matrix(0.26892447,0,0,0.26458334,146.66242,-851.79854)"
       aria-label="s">
      <path
         sodipodi:nodetypes="ccscccsc"
         inkscape:connector-curvature="0"
         id="path83"
         style="font-style:normal;font-variant:normal;font-weight:normal;font-stretch:normal;font-size:3466.66699219px;font-family:'Droid Sans Mono';-inkscape-font-specification:'Droid Sans Mono';display:inline;fill:#680002;fill-opacity:1"
         d="m 851.17345,3164.0777 62.79864,-255.2528 c 217.79521,97.0486 356.21031,115.8804 555.94991,115.8804 310.3299,0 465.4948,-91.4062 465.4948,-274.2187 l 189.1977,303.8101 c -24.5991,28.4618 -53.2466,54.7091 -85.9425,78.742 -132.0313,95.9201 -318.7934,143.8802 -560.2865,143.8802 -279.8611,0 -483.89606,-34.9766 -627.21205,-112.8412 z" />
    </g>
  </g>
  <g
     transform="translate(0,761.33335)"
     id="g81"
     inkscape:groupmode="layer"
     inkscape:label="Layer 1 copy 1"
     style="display:inline">
    <g
       aria-label="s"
       transform="matrix(0.26892447,0,0,0.26458334,146.66242,-851.79854)"
       style="font-style:normal;font-variant:normal;font-weight:normal;font-stretch:normal;font-size:40px;line-height:1.25;font-family:'Droid Sans Mono';-inkscape-font-specification:'Droid Sans Mono';letter-spacing:0px;word-spacing:0px;display:inline;fill:#680002;fill-opacity:1;stroke:none"
       id="g79">
      <path
         d="m 870.70316,1843.1948 c 0,-153.4722 62.63021,-273.6545 187.89064,-360.5469 126.3889,-88.0209 262.9717,-113.705 485.2807,-113.705 63.4758,0 176.1057,10.3753 229.4743,12.3563 20.3316,0.7547 48.1858,-8.4488 71.4457,-25.8853 8.7339,-6.5472 24.1465,-14.864 47.0992,-10.3973 30.0603,5.85 55.9126,40.2283 92.9441,69.072 26.4914,20.634 48.5268,42.5447 107.5956,89.3957 16.6224,13.1843 11.9123,43.5024 59.1304,69.4915 34.6839,19.0902 113.8782,39.6562 149.59,40.7936 28.5588,0.9097 99.6141,-3.9107 99.6141,-3.9107 0,0 4.5417,21.8321 8.7577,23.6566 l -92.1548,137.0017 c -27.4,-10.8395 -52.7433,-28.9098 -91.7108,-47.2401 -46.4398,-21.8453 -108.6856,-44.0601 -167.865,-54.8455 -143.518,-26.1561 -168.3444,-13.4154 -227.437,-30.2516 -40.1274,-11.4328 -85.4063,-59.4368 -90.9454,-86.1217 -9.7631,-47.0344 -118.2964,-40.8425 -169.077,-40.8425 -266.3195,0 -405.1012,170.0434 -405.1012,320.1303 z"
         style="font-style:normal;font-variant:normal;font-weight:normal;font-stretch:normal;font-size:3466.66699219px;font-family:'Droid Sans Mono';-inkscape-font-specification:'Droid Sans Mono';display:inline;fill:#680002;fill-opacity:1"
         id="path77"
         inkscape:connector-curvature="0"
         sodipodi:nodetypes="ccsssssssscccssssscc" />
    </g>
  </g>
</svg>
